<svg xmlns="http://www.w3.org/2000/svg" xml:space="preserve" id="Layer_1" x="0" y="0" style="enable-background:new 0 0 270 160" version="1.1" viewBox="0 0 270 160"><style>.st2,.st3{stroke:#000;stroke-miterlimit:10}.st2{fill:none;stroke-linecap:round;stroke-linejoin:round}.st3{fill:#fff}.st5{fill:#fdce8a}.st6{fill:#fff}.st8{fill:#003b95}.st9{fill:#fddb32}.st10{fill:#191e3b}</style><linearGradient id="SVGID_1_" x1="239.579" x2="420.566" y1="693.52" y2="693.52" gradientTransform="scale(1 -1) rotate(14.495 3201.406 -441.753)" gradientUnits="userSpaceOnUse"><stop offset="0" style="stop-color:#fffff8"/><stop offset=".646" style="stop-color:#f8e5c3"/></linearGradient><path d="M209.9 100.01c18.73-11.84 25.42-24.63 19.61-43.44-7.73-25.02-28.07-32.99-57.38-26.15S145.98 5.14 123.31 3.87 85.89 27.35 68.09 23.64C35.26 16.8 33.07 41.67 45.33 53.57s29 19.69 30.1 43.03 21.74 30.95 40.86 23.03c19.12-7.93 54.23 5.26 93.61-19.62z" style="opacity:.69;fill:url(#SVGID_1_);enable-background:new"/><linearGradient id="SVGID_00000095307928142355938420000012205173539250125993_" x1="253.081" x2="407.122" y1="690.611" y2="690.611" gradientTransform="scale(1 -1) rotate(14.495 3201.406 -441.753)" gradientUnits="userSpaceOnUse"><stop offset="0" style="stop-color:#fffff8"/><stop offset=".107" style="stop-color:#fdf3dc"/><stop offset=".242" style="stop-color:#fbe6c0"/><stop offset=".389" style="stop-color:#fadcaa"/><stop offset=".549" style="stop-color:#f9d59b"/><stop offset=".734" style="stop-color:#f8d192"/><stop offset="1" style="stop-color:#f8d08f"/></linearGradient><path d="M199.85 97.05c15.94-10.07 21.64-20.96 16.69-36.97-6.58-21.29-23.89-28.08-48.84-22.25-24.95 5.82-22.25-21.52-41.55-22.6S94.31 35.21 79.16 32.06C51.21 26.23 49.35 47.4 59.78 57.53 70.22 67.65 84.47 74.28 85.4 94.15s18.5 26.34 34.77 19.6c16.28-6.74 46.17 4.48 79.68-16.7z" style="opacity:.69;fill:url(#SVGID_00000095307928142355938420000012205173539250125993_);enable-background:new"/><path d="M189.26 151.77H65.76" class="st2"/><path d="M74.71 69.5h-8.28c-.76 0-1.38-.62-1.38-1.38v-8.28c0-.76.62-1.38 1.38-1.38h8.28c.76 0 1.38.62 1.38 1.38v8.28c0 .77-.62 1.38-1.38 1.38zm126.2 36.28h-9.98c-.92 0-1.66-.74-1.66-1.66v-9.98c0-.92.74-1.66 1.66-1.66h9.98c.92 0 1.66.74 1.66 1.66v9.98c-.01.92-.75 1.66-1.66 1.66z" class="st3"/><path d="M193.6 96.89h4.62v4.62h-4.62z" style="fill:#f8d08f" transform="rotate(-45.001 195.905 99.207)"/><path d="M117.22 37.91h38.1v62.26h-38.1z" class="st5"/><path d="M100.23 37.91h38.4v62.26h-38.4z" class="st3"/><path d="M113.13 55.66h52.66v96.11h-52.66z" class="st5"/><path d="M90.06 55.66h52.66v96.11H90.06z" class="st6"/><path d="M94.31 64.95h8.28v14.79h-8.28zm17.75 0h8.28v14.79h-8.28zm17.75 0h8.28v14.79h-8.28z" style="fill:#f59715"/><path d="M146.46 55.75h10.57m-67.02 64.72c0 11.57.01 31.27.04 31.3h75.73v-17.58m.01-44.13V55.75h-10.54V37.91l-55.02.09v17.75l-10.17-.09s-.02 2.72-.03 19.48m9.6-19.39h24.85" class="st2"/><path d="M178.14 133.76h-24.72c-2.26 0-4.1-1.84-4.1-4.1v-24.72c0-2.26 1.84-4.1 4.1-4.1h24.72c2.26 0 4.1 1.84 4.1 4.1v24.72c0 2.27-1.83 4.1-4.1 4.1z" class="st3"/><path d="M166.01 128.33c-1.93 0-3.87.01-5.8-.01-.77-.01-1.55.01-2.29-.24-1.56-.51-2.57-1.57-2.84-3.19-.14-.84-.15-1.71-.16-2.57-.02-3.53-.01-7.06 0-10.59 0-.83.01-1.66.2-2.48.36-1.48 1.73-2.77 3.25-2.96.84-.11 1.71-.14 2.56-.15 3.53-.02 7.06-.01 10.59 0 .82 0 1.65.01 2.46.2 1.49.36 2.77 1.72 2.97 3.25.11.84.15 1.71.15 2.56.02 3.53.01 7.07 0 10.61 0 .86.02 1.74-.24 2.57-.51 1.57-1.57 2.57-3.2 2.85-.84.14-1.71.14-2.57.16-1.7.01-3.39 0-5.08-.01zm1.42-11.25c.72-.52 1.09-1.21 1.11-2.07.02-.87-.26-1.6-.97-2.13-.65-.49-1.41-.66-2.21-.66-.82-.01-1.64-.01-2.46 0-.66 0-1.13.47-1.14 1.13v9.01c0 .07.01.13.01.2.07 0 .11.01.16.01 1.15 0 2.3.01 3.44 0 .29 0 .58-.02.87-.07.74-.12 1.4-.39 1.93-.94.66-.7.87-1.55.73-2.49-.13-.84-.57-1.48-1.34-1.88a.497.497 0 0 0-.13-.11zm4.07 5.59c.69 0 1.25-.57 1.25-1.25 0-.69-.57-1.25-1.26-1.25-.69 0-1.25.57-1.25 1.25 0 .69.56 1.25 1.26 1.25z" class="st8"/><path d="M167.43 117.08c.07.04.1.07.14.09.77.39 1.21 1.03 1.34 1.88.14.93-.07 1.79-.73 2.49-.52.55-1.19.83-1.93.94-.29.05-.58.07-.87.07-1.15.01-2.3 0-3.44 0-.05 0-.1-.01-.16-.01 0-.07-.01-.13-.01-.2v-9.01c0-.66.47-1.13 1.14-1.13.82 0 1.64-.01 2.46 0 .8.01 1.56.17 2.21.66.71.53.99 1.26.97 2.13-.03.88-.41 1.56-1.12 2.09zm-3.64 2.54c-.01.34-.01.66-.01 1 0 .11.02.18.16.17.52-.01 1.04.01 1.57 0 .48-.01.91-.15 1.18-.59.21-.36.25-.75.16-1.16-.12-.62-.59-1.02-1.23-1.03-.41-.01-.81-.01-1.22 0-.38 0-.59.2-.61.57-.01.35 0 .69 0 1.04zm-.01-3.23h1.49c.71 0 1.13-.35 1.23-1.05.08-.61-.14-1.29-.96-1.39-.41-.05-.82-.03-1.23-.01-.32.02-.5.24-.51.56-.02.54-.01 1.07-.02 1.61v.28zm7.72 6.28c-.7 0-1.27-.56-1.26-1.25 0-.69.56-1.25 1.25-1.25.7 0 1.27.57 1.26 1.25-.01.69-.56 1.25-1.25 1.25z" class="st6"/><path d="M163.79 119.62c0-.34-.02-.69 0-1.03.02-.38.23-.57.61-.57.41 0 .81-.01 1.22 0 .64.02 1.1.41 1.23 1.03.08.4.05.8-.16 1.16-.26.44-.7.58-1.18.59-.52.01-1.04-.01-1.57 0-.14 0-.16-.06-.16-.17.01-.34 0-.67.01-1.01-.01 0-.01 0 0 0zm-.01-3.23v-.27c0-.54 0-1.08.02-1.61.01-.32.2-.54.51-.56.41-.02.83-.04 1.23.01.82.1 1.04.77.96 1.39-.1.7-.52 1.05-1.23 1.05-.48-.01-.96-.01-1.49-.01z" class="st8"/><path d="M99.64 115.03H75.35a4.03 4.03 0 0 1-4.03-4.03V86.7a4.03 4.03 0 0 1 4.03-4.03h24.29a4.03 4.03 0 0 1 4.03 4.03V111c.01 2.22-1.8 4.03-4.03 4.03z" class="st3"/><path d="M94.49 110.85H80.85c-2.63 0-4.76-2.14-4.76-4.77V92.44c0-2.63 2.14-4.76 4.76-4.76h13.64c2.64 0 4.76 2.14 4.76 4.76v13.64a4.748 4.748 0 0 1-4.76 4.77z" class="st9"/><path d="M83.17 106.35v-2.25c0-.18-.14-.33-.33-.33h-2.25c-.18 0-.33.14-.33.33v2.25c0 .18.14.33.33.33h2.25c.18-.01.33-.15.33-.33zm11.91-1.94V93.33c0-.82-.66-1.49-1.49-1.49H82.52c-.22 0-.36.08-.5.22l-2.21 2.23c-.16.16-.05.41.19.41h10.02l-6.22 6.22c-.11.11-.16.22-.16.41v1.64c0 .19.13.33.33.33h1.64c.19 0 .31-.05.41-.16l6.22-6.22v10.02c0 .24.24.36.41.19l2.23-2.22c.12-.14.2-.27.2-.5z" class="st10"/><path d="M202.76 81.41h-24.71a4.11 4.11 0 0 1-4.11-4.11V52.6a4.11 4.11 0 0 1 4.11-4.11h24.71a4.11 4.11 0 0 1 4.11 4.11v24.7c-.01 2.27-1.85 4.11-4.11 4.11z" class="st3"/><path d="M197.1 76.12h-13.38c-2.59 0-4.68-2.09-4.68-4.68V58.06c0-2.58 2.09-4.67 4.68-4.67h13.38c2.59 0 4.67 2.09 4.67 4.67v13.38c0 2.59-2.09 4.68-4.67 4.68z" style="fill:#ef3346"/><path d="M187.14 63.45a.31.31 0 0 0-.32-.32h-2.21a.31.31 0 0 0-.32.32v2.21c0 .18.13.32.32.32h2.21c.18 0 .32-.13.32-.32v-2.21zm4.87 4.88c0-.18-.14-.32-.32-.32h-2.21a.31.31 0 0 0-.32.32v2.21c0 .18.13.32.32.32h2.21c.18 0 .32-.13.32-.32v-2.21z" class="st10"/><path d="M192.01 63.45a.31.31 0 0 0-.32-.32h-2.21a.31.31 0 0 0-.32.32v2.21c0 .18.13.32.32.32h2.21c.18 0 .32-.13.32-.32v-2.21z" class="st9"/><path d="M197.67 58.93c0-.81-.64-1.46-1.46-1.46h-10.87c-.22 0-.35.08-.48.22l-2.19 2.17c-.16.16-.05.4.18.4h12v12c0 .24.24.35.4.18l2.17-2.17c.14-.14.22-.26.22-.48l.03-10.86z" class="st10"/></svg>

