<svg xmlns="http://www.w3.org/2000/svg" xml:space="preserve" id="Layer_1" x="0" y="0" style="enable-background:new 0 0 270 160" version="1.1" viewBox="0 0 270 160"><style>.st14{stroke:#000;stroke-linecap:round;stroke-linejoin:round;stroke-miterlimit:10}.st7{fill:#fff}.st7,.st8,.st9{stroke:#000;stroke-width:1.1312;stroke-linecap:round;stroke-linejoin:round;stroke-miterlimit:10}.st8{fill:none}.st9{fill:#db3734}.st14{fill:#fff;stroke-width:1.1815}.st16{fill:#348019}</style><linearGradient id="SVGID_1_" x1="28.616" x2="239.392" y1="71.545" y2="71.545" gradientUnits="userSpaceOnUse"><stop offset="0" style="stop-color:#ffdedd"/><stop offset=".359" style="stop-color:#ffe1e1;stop-opacity:.6413"/><stop offset=".676" style="stop-color:#ffeceb;stop-opacity:.3235"/><stop offset=".978" style="stop-color:#fffdfd;stop-opacity:.0221"/><stop offset="1" style="stop-color:#fff;stop-opacity:0"/></linearGradient><path d="M54.96 114.43c7.32.86 15.55-.25 22.5 2 6.2 2 11.83 7.17 17.75 9.98 12.59 5.97 24.78 7.73 38.03 2.38 13.07-5.27 25.48-13.93 39.57-13.84 13 .09 25.7 7.77 38.39 4.95 5.97-1.32 11.25-4.91 15.5-9.29 10.31-10.61 15.02-26.55 11.54-40.93-3.47-14.38-15.25-26.58-29.64-30-14.11-3.36-29.21 1.35-43.33-1.97-13.25-3.12-23.8-12.8-35.56-19.65-11.76-6.85-27.72-10.55-38.29-1.97-9.6 7.79-10.5 22.15-17.69 32.21-7 9.78-18.99 14.33-29.02 20.95-10.03 6.62-19.13 18.45-15.15 29.8 3.47 9.86 15.03 14.16 25.4 15.38z" style="opacity:.69;fill:url(#SVGID_1_)"/><linearGradient id="SVGID_00000017492651667336719800000012128638591443732153_" x1="41.704" x2="221.86" y1="73.149" y2="73.149" gradientUnits="userSpaceOnUse"><stop offset="0" style="stop-color:#f28883"/><stop offset=".2" style="stop-color:#f28b87;stop-opacity:.8"/><stop offset=".377" style="stop-color:#f39691;stop-opacity:.6227"/><stop offset=".546" style="stop-color:#f5a7a3;stop-opacity:.454"/><stop offset=".71" style="stop-color:#f8c0bd;stop-opacity:.2905"/><stop offset=".868" style="stop-color:#fbdfde;stop-opacity:.1325"/><stop offset="1" style="stop-color:#fff;stop-opacity:0"/></linearGradient><path d="M64.22 109.8c6.26.73 13.29-.21 19.23 1.71 5.3 1.71 10.11 6.13 15.18 8.53 10.76 5.1 21.18 6.61 32.51 2.03 11.17-4.51 21.78-11.91 33.82-11.83 11.11.08 21.97 6.64 32.82 4.23 5.1-1.13 9.61-4.19 13.25-7.94 8.81-9.07 12.83-22.69 9.87-34.98s-13.03-22.72-25.33-25.65c-12.06-2.87-24.96 1.16-37.03-1.68-11.33-2.66-20.34-10.94-30.4-16.79-10.06-5.86-23.69-9.02-32.73-1.68-8.21 6.66-8.97 18.94-15.12 27.53-5.99 8.37-16.24 12.26-24.82 17.92-8.58 5.66-16.35 15.77-12.95 25.47 2.95 8.42 12.84 12.09 21.7 13.13z" style="opacity:.69;fill:url(#SVGID_00000017492651667336719800000012128638591443732153_)"/><path d="M95.96 112.2V95.58c11.7-2.43 26.29-4.45 43.11-4.56 17.99-.11 33.52 2.02 45.77 4.56v17.31M85.02 137.2h108.36v14.58H85.02z" style="fill:#fff"/><path d="M189.02 134.53H89.39c-2.41 0-4.36-1.95-4.36-4.36v-7.67c0-2.41 1.95-4.36 4.36-4.36h99.63c2.41 0 4.36 1.95 4.36 4.36v7.67c.01 2.41-1.95 4.36-4.36 4.36z" style="fill:#ff8381"/><path d="M227.27 147.17h-28.18v-24.95h28.18v12.47zm-28.18-12.48h28.18m-17.76-5.22h6.42m-6.42 11.85h6.42m-11.05-19.94v-2.57c0-.53.43-.96.96-.96h13.75c.53 0 .96.43.96.96v2.57" class="st7"/><path d="M212.72 112.24v5.29" class="st8"/><path d="M220.56 112.24h-15.68l1.2-15.68h13.28z" class="st9"/><path d="M79.46 147.17H51.28v-24.95h28.18v12.47zm-28.18-12.48h28.18m-17.75-5.22h6.41m-6.41 11.85h6.41m-11.05-19.94v-2.57c0-.53.43-.96.96-.96h13.75c.53 0 .96.43.96.96v2.57" class="st7"/><path d="M64.91 112.24v5.29" class="st8"/><path d="M72.75 112.24H57.07l1.2-15.68h13.28z" class="st9"/><path d="M235.2 151.78H34.8m61.16-38.81h88.88V95.59a218.846 218.846 0 0 0-45.77-4.56c-16.82.1-31.41 2.13-43.11 4.56v17.38" class="st8"/><path d="M137.23 112.9h-36.38v-5.28c0-3.21 2.6-5.81 5.81-5.81h24.75c3.21 0 5.81 2.6 5.81 5.81v5.28zm41.95 0H142.8v-5.28c0-3.21 2.6-5.81 5.81-5.81h24.75c3.21 0 5.81 2.6 5.81 5.81v5.28z" style="fill:#ff8381;stroke:#000;stroke-width:1.1312;stroke-linecap:round;stroke-linejoin:round;stroke-miterlimit:10"/><path d="M193.5 152.38h-30.48l-7.83-15.18h38.31z" style="fill:#ffe0df"/><path d="M193.39 137.2v14.58H85.02V137.2m104-2.67H89.39c-2.41 0-4.36-1.95-4.36-4.36v-7.67c0-2.41 1.95-4.36 4.36-4.36h99.63c2.41 0 4.36 1.95 4.36 4.36v7.67c.01 2.41-1.95 4.36-4.36 4.36z" class="st8"/><path d="M91.02 76.08H58.68a4.21 4.21 0 0 1-4.21-4.21V52.33a4.21 4.21 0 0 1 4.21-4.21h32.34a4.21 4.21 0 0 1 4.21 4.21v19.55c0 2.32-1.88 4.2-4.21 4.2z" class="st14"/><path d="M67.27 67.54c-.58-.25-1.04-.61-1.38-1.07-.34-.46-.54-.99-.61-1.6l-.01-.09h1.71l.02.1c.1.51.35.91.74 1.19.39.28.92.43 1.62.43.46 0 .86-.06 1.19-.18.33-.12.58-.29.75-.52s.26-.49.26-.8v-.01c0-.37-.11-.66-.33-.88-.22-.22-.62-.41-1.21-.55l-1.62-.39c-.64-.16-1.17-.36-1.59-.61-.42-.25-.74-.56-.95-.93-.21-.37-.31-.79-.31-1.28v-.01c0-.59.16-1.11.48-1.56.32-.45.76-.8 1.32-1.06.57-.25 1.21-.38 1.95-.38.75 0 1.39.13 1.95.4.55.26.99.62 1.3 1.08.32.45.5.97.53 1.53l.01.13h-1.63l-.01-.07c-.07-.5-.28-.9-.65-1.2-.37-.3-.87-.45-1.5-.45-.41 0-.77.06-1.07.19-.3.12-.53.3-.69.52-.16.23-.24.49-.24.79v.01c0 .23.05.44.16.62.11.19.28.35.51.49.24.14.54.25.91.34l1.62.39c1.03.25 1.76.59 2.18 1.02.42.43.63 1.01.63 1.74v.01c0 .59-.17 1.12-.51 1.58-.34.46-.81.82-1.41 1.07-.6.26-1.28.39-2.03.39-.81 0-1.5-.13-2.09-.38z"/><path d="M68.51 55.86h1.56v2.22h-1.56zm0 11.33h1.56v2.22h-1.56zm10 .35c-.58-.25-1.04-.61-1.38-1.07-.34-.46-.54-.99-.61-1.6l-.01-.09h1.71l.02.1c.1.51.35.91.74 1.19.39.28.92.43 1.62.43.46 0 .86-.06 1.19-.18.33-.12.58-.29.75-.52s.26-.49.26-.8v-.01c0-.37-.11-.66-.33-.88-.22-.22-.62-.41-1.21-.55l-1.62-.39c-.64-.16-1.17-.36-1.59-.61-.42-.25-.74-.56-.95-.93-.21-.37-.31-.79-.31-1.28v-.01c0-.59.16-1.11.48-1.56.32-.45.76-.8 1.32-1.06.57-.25 1.21-.38 1.95-.38.75 0 1.39.13 1.95.4.55.26.99.62 1.3 1.08.32.45.5.97.53 1.53l.01.13H82.7l-.01-.07c-.07-.5-.28-.9-.65-1.2-.37-.3-.87-.45-1.5-.45-.41 0-.77.06-1.07.19-.3.12-.53.3-.69.52-.16.23-.24.49-.24.79v.01c0 .23.05.44.16.62.11.19.28.35.51.49.24.14.54.25.91.34l1.62.39c1.03.25 1.76.59 2.18 1.02.42.43.63 1.01.63 1.74v.01c0 .59-.17 1.12-.51 1.58-.34.46-.81.82-1.41 1.07-.6.26-1.28.39-2.03.39-.81 0-1.5-.13-2.09-.38z"/><path d="M79.75 55.86h1.56v2.22h-1.56zm0 11.33h1.56v2.22h-1.56z"/><path d="M219.73 76.08h-32.34a4.21 4.21 0 0 1-4.21-4.21V52.33a4.21 4.21 0 0 1 4.21-4.21h32.34a4.21 4.21 0 0 1 4.21 4.21v19.55a4.214 4.214 0 0 1-4.21 4.2z" class="st14"/><path d="M201.04 67.54c-.58-.25-1.04-.61-1.38-1.07-.34-.46-.54-.99-.61-1.6l-.01-.09h1.71l.02.1c.1.51.35.91.74 1.19.39.28.92.43 1.62.43.46 0 .86-.06 1.19-.18.33-.12.58-.29.75-.52s.26-.49.26-.8v-.01c0-.37-.11-.66-.33-.88-.22-.22-.62-.41-1.21-.55l-1.62-.39c-.64-.16-1.17-.36-1.59-.61-.42-.25-.74-.56-.95-.93-.21-.37-.31-.79-.31-1.28v-.01c0-.59.16-1.11.48-1.56.32-.45.76-.8 1.32-1.06.57-.25 1.21-.38 1.95-.38.75 0 1.39.13 1.95.4.55.26.99.62 1.3 1.08.32.45.5.97.53 1.53l.01.13h-1.63l-.01-.07c-.07-.5-.28-.9-.65-1.2-.37-.3-.87-.45-1.5-.45-.41 0-.77.06-1.07.19-.3.12-.53.3-.69.52-.16.23-.24.49-.24.79v.01c0 .23.05.44.16.62.11.19.28.35.51.49.24.14.54.25.91.34l1.62.39c1.03.25 1.76.59 2.18 1.02.42.43.63 1.01.63 1.74v.01c0 .59-.17 1.12-.51 1.58-.34.46-.81.82-1.41 1.07-.6.26-1.28.39-2.03.39-.82 0-1.51-.13-2.09-.38z"/><path d="M202.28 55.86h1.56v2.22h-1.56zm0 11.33h1.56v2.22h-1.56zm-11.89.35c-.58-.25-1.04-.61-1.38-1.07-.34-.46-.54-.99-.61-1.6l-.01-.09h1.71l.02.1c.1.51.35.91.74 1.19.39.28.92.43 1.62.43.46 0 .86-.06 1.19-.18.33-.12.58-.29.75-.52s.26-.49.26-.8v-.01c0-.37-.11-.66-.33-.88-.22-.22-.62-.41-1.21-.55l-1.62-.39c-.64-.16-1.17-.36-1.59-.61-.42-.25-.74-.56-.95-.93-.21-.37-.31-.79-.31-1.28v-.01c0-.59.16-1.11.48-1.56.32-.45.76-.8 1.32-1.06.57-.25 1.21-.38 1.95-.38.75 0 1.39.13 1.95.4.55.26.99.62 1.3 1.08.32.45.5.97.53 1.53l.01.13h-1.63l-.01-.07c-.07-.5-.28-.9-.65-1.2-.37-.3-.87-.45-1.5-.45-.41 0-.77.06-1.07.19-.3.12-.53.3-.69.52-.16.23-.24.49-.24.79v.01c0 .23.05.44.16.62.11.19.28.35.51.49.24.14.54.25.91.34l1.62.39c1.03.25 1.76.59 2.18 1.02.42.43.63 1.01.63 1.74v.01c0 .59-.17 1.12-.51 1.58-.34.46-.81.82-1.41 1.07-.6.26-1.28.39-2.03.39-.82 0-1.5-.13-2.09-.38z"/><path d="M191.63 55.86h1.56v2.22h-1.56zm0 11.33h1.56v2.22h-1.56zm20.06.35c-.58-.25-1.04-.61-1.38-1.07-.34-.46-.54-.99-.61-1.6l-.01-.09h1.71l.02.1c.1.51.35.91.74 1.19.39.28.92.43 1.62.43.46 0 .86-.06 1.19-.18.33-.12.58-.29.75-.52s.26-.49.26-.8v-.01c0-.37-.11-.66-.33-.88-.22-.22-.62-.41-1.21-.55l-1.62-.39c-.64-.16-1.17-.36-1.59-.61-.42-.25-.74-.56-.95-.93-.21-.37-.31-.79-.31-1.28v-.01c0-.59.16-1.11.48-1.56.32-.45.76-.8 1.32-1.06.57-.25 1.21-.38 1.95-.38.75 0 1.39.13 1.95.4.55.26.99.62 1.3 1.08.32.45.5.97.53 1.53l.01.13h-1.63l-.01-.07c-.07-.5-.28-.9-.65-1.2-.37-.3-.87-.45-1.5-.45-.41 0-.77.06-1.07.19-.3.12-.53.3-.69.52-.16.23-.24.49-.24.79v.01c0 .23.05.44.16.62.11.19.28.35.51.49.24.14.54.25.91.34l1.62.39c1.03.25 1.76.59 2.18 1.02.42.43.63 1.01.63 1.74v.01c0 .59-.17 1.12-.51 1.58-.34.46-.81.82-1.41 1.07-.6.26-1.28.39-2.03.39-.82 0-1.51-.13-2.09-.38z"/><path d="M212.93 55.86h1.56v2.22h-1.56zm0 11.33h1.56v2.22h-1.56z"/><path d="M162.4 78.86h-44.86a5.84 5.84 0 0 1-5.84-5.84v-27.1a5.84 5.84 0 0 1 5.84-5.84h44.86a5.84 5.84 0 0 1 5.84 5.84v27.11c0 3.22-2.62 5.83-5.84 5.83z" style="fill:#d2e5b5;stroke:#028000;stroke-width:1.1815;stroke-linecap:round;stroke-linejoin:round;stroke-miterlimit:10"/><path d="M136.3 68.81c-1.08-.47-1.93-1.13-2.56-1.98-.62-.85-1-1.84-1.14-2.96l-.02-.16h3.16l.04.18c.19.95.65 1.68 1.36 2.21.71.53 1.72.79 3 .79.86 0 1.59-.11 2.2-.34.61-.22 1.07-.55 1.4-.96.33-.42.49-.91.49-1.48v-.02c0-.68-.21-1.22-.62-1.64-.41-.41-1.16-.75-2.24-1.02l-3-.73c-1.19-.29-2.17-.67-2.96-1.14-.78-.47-1.37-1.04-1.75-1.72-.39-.68-.58-1.47-.58-2.38v-.02c0-1.09.29-2.05.88-2.89s1.41-1.49 2.46-1.96 2.25-.71 3.61-.71c1.38 0 2.59.25 3.61.74s1.83 1.16 2.42 2c.59.84.92 1.79.99 2.85l.02.24h-3.02l-.02-.13c-.12-.92-.52-1.66-1.21-2.22-.69-.56-1.62-.84-2.79-.84-.76 0-1.42.12-1.98.35s-.99.55-1.28.97c-.3.42-.45.91-.45 1.46v.02c0 .42.1.81.3 1.15.2.35.52.65.95.9.44.25 1 .47 1.69.64l3 .73c1.92.46 3.26 1.09 4.04 1.9.78.81 1.16 1.88 1.16 3.23v.02c0 1.1-.32 2.08-.95 2.93-.64.85-1.51 1.51-2.62 1.99s-2.37.72-3.77.72c-1.47-.01-2.75-.25-3.82-.72z" class="st16"/><path d="M138.59 47.14h2.89v4.12h-2.89zm0 21.03h2.89v4.12h-2.89z" class="st16"/><circle cx="166.02" cy="41.8" r="13.47" class="st16"/><path d="m159.4 42.62 4.36 4.37 9.39-9.39" style="fill:none;stroke:#fff;stroke-width:1.1815;stroke-linecap:round;stroke-linejoin:round;stroke-miterlimit:10"/></svg>